<?xml version="1.0" encoding="UTF-8" standalone="no"?>
<!-- Created with Inkscape (http://www.inkscape.org/) -->

<svg
   width="100"
   height="100"
   viewBox="0 0 100 100"
   version="1.1"
   id="svg5"
   xmlns="http://www.w3.org/2000/svg"
   xmlns:svg="http://www.w3.org/2000/svg">
  <defs
     id="defs2" />
  <g
     id="layer1">
    <path
       id="rect234"
       style="fill:#000000;stroke:none;stroke-linejoin:round"
       d="M 32.5 10 L 32.5 25 L 25 25 L 25 32.5 L 10 32.5 L 10 37.5 L 25 37.5 L 25 47.5 L 10 47.5 L 10 52.5 L 25 52.5 L 25 62.5 L 10 62.5 L 10 67.5 L 25 67.5 L 25 75 L 32.5 75 L 32.5 90 L 37.5 90 L 37.5 75 L 47.5 75 L 47.5 90 L 52.5 90 L 52.5 75 L 62.5 75 L 62.5 90 L 67.5 90 L 67.5 75 L 75 75 L 75 67.5 L 90 67.5 L 90 62.5 L 75 62.5 L 75 52.5 L 90 52.5 L 90 47.5 L 75 47.5 L 75 37.5 L 90 37.5 L 90 32.5 L 75 32.5 L 75 25 L 67.5 25 L 67.5 10 L 62.5 10 L 62.5 25 L 52.5 25 L 52.5 10 L 47.5 10 L 47.5 25 L 37.5 25 L 37.5 10 L 32.5 10 z " />
    <path
       id="rect364"
       style="fill:#ff0000;stroke-width:0.999996;stroke-linejoin:round"
       d="M 30,30 H 70 V 70 H 30 Z" />
  </g>
</svg>
