<?xml version="1.0" encoding="UTF-8" standalone="no"?>
<!-- Created with Inkscape (http://www.inkscape.org/) -->

<svg
   width="80"
   height="60"
   viewBox="0 0 80 60"
   version="1.1"
   id="svg5"
   xmlns="http://www.w3.org/2000/svg"
   xmlns:svg="http://www.w3.org/2000/svg">
  <defs
     id="defs2" />
  <g
     id="g1">
    <path
       d="M 3.9422109,22.165285 H 5.358882 l 3.4479276,6.505229 v -6.505229 h 1.0208365 v 7.776066 H 8.410975 L 4.9630474,23.436122 v 6.505229 H 3.9422109 Z m 10.5781581,1.036461 -1.427088,3.869804 h 2.859384 z m -0.593752,-1.036461 h 1.192712 l 2.963551,7.776066 h -1.093753 l -0.708336,-1.994798 h -3.505219 l -0.708336,1.994798 h -1.109378 z m 5.291684,0 h 1.416671 l 3.447927,6.505229 v -6.505229 h 1.020837 v 7.776066 h -1.416671 l -3.447928,-6.505229 v 6.505229 h -1.020836 z m 11.135451,0.713544 q -1.145837,0 -1.822922,0.854169 -0.671877,0.854169 -0.671877,2.328132 0,1.468755 0.671877,2.322924 0.677085,0.85417 1.822922,0.85417 1.145837,0 1.812506,-0.85417 0.671877,-0.854169 0.671877,-2.322924 0,-1.473963 -0.671877,-2.328132 -0.666669,-0.854169 -1.812506,-0.854169 z m 0,-0.85417 q 1.635422,0 2.614592,1.098962 0.97917,1.093754 0.97917,2.937509 0,1.838548 -0.97917,2.93751 -0.97917,1.093753 -2.614592,1.093753 -1.64063,0 -2.625008,-1.093753 -0.97917,-1.093754 -0.97917,-2.93751 0,-1.843755 0.97917,-2.937509 0.984378,-1.098962 2.625008,-1.098962 z"
       id="text1516"
       style="font-size:10.6667px;font-family:FreeSans;-inkscape-font-specification:FreeSans;fill:#333333;stroke-width:3.77953;stroke-linejoin:round;stroke-dasharray:11.3386, 11.3386"
       aria-label="NANO" />
    <path
       style="font-weight:bold;font-size:24px;font-family:'Liberation Mono';-inkscape-font-specification:'Liberation Mono Bold';fill:#ff0000;stroke-width:3.77953;stroke-linejoin:round;stroke-dasharray:11.3386, 11.3386"
       d="M 44.470081,37.962673 41.071644,31.927517 H 39.0443 v 6.035156 H 35.587269 V 22.154079 h 5.789062 q 3.09375,0 4.628907,1.207032 1.535156,1.207031 1.535156,3.480468 0,1.605469 -0.867188,2.730469 -0.867187,1.125 -2.402343,1.582031 l 4.089843,6.808594 z M 44.059925,26.982204 q 0,-1.101562 -0.726562,-1.617187 Q 42.6068,24.837673 41.01305,24.837673 H 39.0443 v 4.40625 h 2.0625 q 2.953125,0 2.953125,-2.261719 z m 5.929688,10.980469 V 22.154079 h 11.34375 v 2.671875 h -7.886719 v 3.796875 h 7.171875 v 2.671875 h -7.171875 v 3.996094 h 8.367187 v 2.671875 z m 26.261718,-8.027344 q 0,3.867188 -1.804687,5.953125 -1.804688,2.074219 -5.144531,2.074219 H 64.368519 V 22.154079 h 4.230469 q 3.84375,0 5.742187,1.933594 1.910156,1.921875 1.910156,5.847656 z m -3.480468,0 q 0,-2.660156 -1.007813,-3.878906 -0.996094,-1.230469 -3.222656,-1.230469 H 67.82555 v 10.464844 h 1.195313 q 3.75,0 3.75,-5.355469 z"
       id="text1520"
       aria-label="RED" />
    <circle
       style="fill:none;stroke:#ff0000;stroke-width:1;stroke-linejoin:round;stroke-dasharray:none;stroke-opacity:1"
       id="path2510"
       cx="31.51305"
       cy="32.593651"
       r="1" />
    <circle
       style="fill:none;stroke:#ff0000;stroke-width:1;stroke-linejoin:round;stroke-dasharray:none;stroke-opacity:1"
       id="circle2618"
       cx="20.057411"
       cy="36.05648"
       r="1" />
    <path
       style="fill:none;stroke:#ff0000;stroke-width:1;stroke-linejoin:round;stroke-dasharray:none;stroke-opacity:1"
       d="m 21.057411,36.056479 h 15.07434"
       id="path2683" />
    <path
       style="fill:none;stroke:#ff0000;stroke-width:1;stroke-linejoin:round;stroke-dasharray:none;stroke-opacity:1"
       d="m 32.127843,33.382338 2.874103,2.674141"
       id="path2689" />
    <circle
       style="fill:none;stroke:#ff0000;stroke-width:1;stroke-linejoin:round;stroke-dasharray:none;stroke-opacity:1"
       id="circle2787"
       cx="27.161476"
       cy="32.593651"
       r="1" />
    <path
       style="fill:none;stroke:#ff0000;stroke-width:1;stroke-linejoin:round;stroke-dasharray:none;stroke-opacity:1"
       d="m 27.776269,33.382338 2.874103,2.674141"
       id="path2789" />
    <circle
       style="fill:none;stroke:#ff0000;stroke-width:1;stroke-linejoin:round;stroke-dasharray:none;stroke-opacity:1"
       id="circle2893"
       cx="22.809902"
       cy="32.593651"
       r="1" />
    <path
       style="fill:none;stroke:#ff0000;stroke-width:1;stroke-linejoin:round;stroke-dasharray:none;stroke-opacity:1"
       d="m 23.809902,32.593649 h 2.351574"
       id="path2895" />
  </g>
</svg>
